<svg xmlns="http://www.w3.org/2000/svg" version="1.1" xmlns:xlink="http://www.w3.org/1999/xlink" xmlns:svgjs="http://svgjs.com/svgjs" width="1440" height="560" preserveAspectRatio="none" viewBox="0 0 1440 560"><g mask="url(&quot;#SvgjsMask1053&quot;)" fill="none"><rect width="1440" height="560" x="0" y="0" fill="rgba(97, 218, 251, 1)"></rect><path d="M1512 560L0 560 L0 365.54Q10.44 303.98, 72 314.41Q101.93 272.34, 144 302.26Q206.31 292.56, 216 354.87Q268.82 287.69, 336 340.52Q380.81 265.33, 456 310.14Q486.08 268.22, 528 298.3Q608.19 258.49, 648 338.68Q669.49 288.17, 720 309.66Q773.51 243.17, 840 296.68Q903.02 287.7, 912 350.72Q982.63 301.35, 1032 371.98Q1036.11 304.09, 1104 308.19Q1145.07 277.26, 1176 318.33Q1225.66 295.99, 1248 345.65Q1291.24 316.88, 1320 360.12Q1363.14 283.26, 1440 326.4Q1460.83 275.23, 1512 296.05z" fill="rgba(34, 77, 164, 1)"></path><path d="M1488 560L0 560 L0 369.4Q92.04 341.44, 120 433.48Q156.29 349.77, 240 386.06Q287.97 314.03, 360 362Q448.9 330.9, 480 419.8Q499.66 367.46, 552 387.11Q619.32 334.44, 672 401.76Q751.84 361.6, 792 441.43Q824.69 354.13, 912 386.82Q959.5 314.32, 1032 361.83Q1088.94 346.77, 1104 403.71Q1179.77 359.48, 1224 435.25Q1247.39 338.64, 1344 362.03Q1390.34 336.37, 1416 382.71Q1476.35 371.05, 1488 431.4z" fill="rgba(38, 101, 207, 1)"></path><path d="M1464 560L0 560 L0 429.46Q39.08 396.54, 72 435.62Q139.19 430.81, 144 498.01Q188.32 470.33, 216 514.66Q231.88 458.53, 288 474.41Q330.57 444.99, 360 487.56Q432.3 439.86, 480 512.15Q492.75 452.9, 552 465.66Q596.77 438.43, 624 483.2Q643.78 430.98, 696 450.75Q746.27 381.02, 816 431.29Q872.23 415.52, 888 471.76Q957.93 421.69, 1008 491.62Q1076.99 440.61, 1128 509.59Q1139.82 449.4, 1200 461.22Q1216.37 405.59, 1272 421.96Q1321.64 399.6, 1344 449.24Q1413.03 398.27, 1464 467.31z" fill="rgba(51, 125, 218, 1)"></path><path d="M1512 560L0 560 L0 536.17Q37.12 453.28, 120 490.4Q191.88 442.28, 240 514.16Q311.95 466.11, 360 538.05Q426.21 484.26, 480 550.47Q498.05 496.52, 552 514.57Q578.6 469.17, 624 495.77Q681.37 481.14, 696 538.51Q778.22 500.73, 816 582.94Q845.25 540.2, 888 569.45Q940.97 502.42, 1008 555.4Q1028.73 504.13, 1080 524.87Q1123.33 448.2, 1200 491.53Q1266.5 438.02, 1320 504.52Q1403.76 468.28, 1440 552.04Q1466.14 506.18, 1512 532.32z" fill="rgba(255, 255, 255, 1)"></path></g><defs><mask id="SvgjsMask1053"><rect width="1440" height="560" fill="#ffffff"></rect></mask></defs></svg>
